<svg width="1037" height="262" viewBox="0 0 1037 262" fill="none" xmlns="http://www.w3.org/2000/svg">
<mask id="path-1-outside-1_1_1378" maskUnits="userSpaceOnUse" x="-2" y="-2" width="1041" height="383" fill="black">
<rect fill="white" x="-2" y="-2" width="1041" height="383"/>
<path d="M1.77344 294.5C34.1068 269.167 60.6068 247.333 81.2734 229C101.94 210.667 119.273 191.833 133.273 172.5C147.273 152.833 154.273 134.167 154.273 116.5C154.273 105.833 151.773 97.5 146.773 91.5C142.107 85.5 135.107 82.5 125.773 82.5C116.107 82.5 108.607 86.6666 103.273 95C97.9401 103 95.4401 114.833 95.7734 130.5H0.773438C1.77344 100.833 8.27344 76.3333 20.2734 57C32.2734 37.3333 47.9401 23 67.2734 14C86.6068 4.66664 108.107 -2.57492e-05 131.773 -2.57492e-05C172.773 -2.57492e-05 203.273 10.1666 223.273 30.5C243.273 50.8333 253.273 77.1667 253.273 109.5C253.273 144.167 241.607 176.667 218.273 207C195.273 237.333 166.44 264.5 131.773 288.5H256.773V368H1.77344V294.5ZM555.441 94H405.441V149.5C411.775 142.833 420.441 137.5 431.441 133.5C442.441 129.5 454.608 127.5 467.941 127.5C491.941 127.5 511.941 133 527.941 144C544.275 155 556.275 169.5 563.941 187.5C571.608 205.5 575.441 225.167 575.441 246.5C575.441 285.833 564.275 316.833 541.941 339.5C519.608 361.833 488.608 373 448.941 373C421.275 373 397.275 368.333 376.941 359C356.941 349.333 341.608 336 330.941 319C320.275 302 314.775 282.5 314.441 260.5H409.941C410.941 268.167 414.275 274.833 419.941 280.5C425.608 286.167 433.941 289 444.941 289C456.608 289 465.441 285 471.441 277C477.441 269 480.441 258.333 480.441 245C480.441 232 477.275 222.167 470.941 215.5C464.608 208.5 455.441 205 443.441 205C434.441 205 427.108 207.333 421.441 212C416.108 216.333 412.941 221.833 411.941 228.5H316.441V7.5H555.441V94ZM610.578 101.5C610.578 73.1667 618.578 51.5 634.578 36.5C650.578 21.5 671.578 14 697.578 14C723.245 14 744.078 21.5 760.078 36.5C776.078 51.5 784.078 73.1667 784.078 101.5C784.078 129.5 776.078 151.167 760.078 166.5C744.078 181.5 723.245 189 697.578 189C671.911 189 650.911 181.5 634.578 166.5C618.578 151.167 610.578 129.5 610.578 101.5ZM965.578 19.5L776.078 373H682.078L871.578 19.5H965.578ZM697.078 71.5C683.411 71.5 676.578 81.5 676.578 101.5C676.578 121.5 683.411 131.5 697.078 131.5C703.745 131.5 708.911 129 712.578 124C716.578 119 718.578 111.5 718.578 101.5C718.578 91.5 716.578 84 712.578 79C708.911 74 703.745 71.5 697.078 71.5ZM863.578 290.5C863.578 262.5 871.578 241 887.578 226C903.911 210.667 924.911 203 950.578 203C976.245 203 996.911 210.667 1012.58 226C1028.58 241 1036.58 262.5 1036.58 290.5C1036.58 318.833 1028.58 340.667 1012.58 356C996.911 371 976.245 378.5 950.578 378.5C924.911 378.5 903.911 371 887.578 356C871.578 340.667 863.578 318.833 863.578 290.5ZM950.078 260.5C936.078 260.5 929.078 270.5 929.078 290.5C929.078 310.833 936.078 321 950.078 321C956.411 321 961.411 318.5 965.078 313.5C969.078 308.167 971.078 300.5 971.078 290.5C971.078 280.833 969.078 273.5 965.078 268.5C961.411 263.167 956.411 260.5 950.078 260.5Z"/>
</mask>
<path d="M1.77344 294.5L0.539946 292.926L-0.226562 293.526V294.5H1.77344ZM81.2734 229L79.9462 227.504H79.9462L81.2734 229ZM133.273 172.5L134.893 173.673L134.898 173.666L134.903 173.66L133.273 172.5ZM146.773 91.5L145.195 92.7279L145.215 92.7545L145.237 92.7804L146.773 91.5ZM103.273 95L104.938 96.1094L104.948 96.0938L104.958 96.0781L103.273 95ZM95.7734 130.5V132.5H97.8165L97.773 130.457L95.7734 130.5ZM0.773438 130.5L-1.22543 130.433L-1.29511 132.5H0.773438V130.5ZM20.2734 57L21.9727 58.0547L21.9767 58.0482L21.9807 58.0417L20.2734 57ZM67.2734 14L68.1175 15.8131L68.1303 15.8072L68.1429 15.8011L67.2734 14ZM223.273 30.5L224.699 29.0975L223.273 30.5ZM218.273 207L216.688 205.781L216.68 205.792L218.273 207ZM131.773 288.5L130.635 286.856L125.371 290.5H131.773V288.5ZM256.773 288.5H258.773V286.5H256.773V288.5ZM256.773 368V370H258.773V368H256.773ZM1.77344 368H-0.226562V370H1.77344V368ZM3.00693 296.074C35.3585 270.727 61.8928 248.866 82.6007 230.496L79.9462 227.504C59.3207 245.801 32.855 267.607 0.539946 292.926L3.00693 296.074ZM82.6007 230.496C103.36 212.081 120.796 193.141 134.893 173.673L131.654 171.327C117.751 190.526 100.52 209.252 79.9462 227.504L82.6007 230.496ZM134.903 173.66C149.057 153.776 156.273 134.71 156.273 116.5H152.273C152.273 133.623 145.489 151.891 131.644 171.34L134.903 173.66ZM156.273 116.5C156.273 105.536 153.703 96.6914 148.31 90.2196L145.237 92.7804C149.844 98.3086 152.273 106.13 152.273 116.5H156.273ZM148.352 90.2721C143.22 83.6738 135.568 80.5 125.773 80.5V84.5C134.645 84.5 140.993 87.3261 145.195 92.7279L148.352 90.2721ZM125.773 80.5C115.406 80.5 107.279 85.0305 101.589 93.9219L104.958 96.0781C109.934 88.3028 116.808 84.5 125.773 84.5V80.5ZM101.609 93.8906C95.9464 102.385 93.4369 114.702 93.7739 130.543L97.773 130.457C97.4434 114.965 99.9338 103.615 104.938 96.1094L101.609 93.8906ZM95.7734 128.5H0.773438V132.5H95.7734V128.5ZM2.7723 130.567C3.76401 101.147 10.2051 77.0136 21.9727 58.0547L18.5742 55.9453C6.34173 75.6531 -0.217135 100.52 -1.22543 130.433L2.7723 130.567ZM21.9807 58.0417C33.7926 38.6834 49.1706 24.6333 68.1175 15.8131L66.4294 12.1868C46.7096 21.3667 30.7543 35.9833 18.5662 55.9583L21.9807 58.0417ZM68.1429 15.8011C87.1783 6.61157 108.377 1.99997 131.773 1.99997V-2.00003C107.837 -2.00003 86.0352 2.72171 66.4039 12.1989L68.1429 15.8011ZM131.773 1.99997C172.474 1.99997 202.362 12.0921 221.848 31.9025L224.699 29.0975C204.185 8.24115 173.073 -2.00003 131.773 -2.00003V1.99997ZM221.848 31.9025C241.429 51.8107 251.273 77.6152 251.273 109.5H255.273C255.273 76.7181 245.117 49.8559 224.699 29.0975L221.848 31.9025ZM251.273 109.5C251.273 143.679 239.782 175.758 216.688 205.781L219.859 208.219C243.431 177.575 255.273 144.654 255.273 109.5H251.273ZM216.68 205.792C193.82 235.939 165.146 262.963 130.635 286.856L132.912 290.144C167.734 266.037 196.726 238.727 219.867 208.208L216.68 205.792ZM131.773 290.5H256.773V286.5H131.773V290.5ZM254.773 288.5V368H258.773V288.5H254.773ZM256.773 366H1.77344V370H256.773V366ZM3.77344 368V294.5H-0.226562V368H3.77344ZM555.441 94V96H557.441V94H555.441ZM405.441 94V92H403.441V94H405.441ZM405.441 149.5H403.441V154.509L406.891 150.877L405.441 149.5ZM431.441 133.5L430.758 131.62L431.441 133.5ZM527.941 144L526.808 145.648L526.816 145.654L526.824 145.659L527.941 144ZM563.941 187.5L565.781 186.716L563.941 187.5ZM541.941 339.5L543.356 340.914L543.361 340.909L543.366 340.904L541.941 339.5ZM376.941 359L376.071 360.801L376.089 360.809L376.107 360.818L376.941 359ZM330.941 319L329.247 320.063L330.941 319ZM314.441 260.5V258.5H312.411L312.442 260.53L314.441 260.5ZM409.941 260.5L411.925 260.241L411.697 258.5H409.941V260.5ZM419.941 280.5L418.527 281.914L419.941 280.5ZM471.441 277L473.041 278.2L471.441 277ZM470.941 215.5L469.458 216.842L469.475 216.86L469.491 216.877L470.941 215.5ZM421.441 212L422.703 213.552L422.713 213.544L421.441 212ZM411.941 228.5V230.5H413.664L413.919 228.797L411.941 228.5ZM316.441 228.5H314.441V230.5H316.441V228.5ZM316.441 7.5V5.5H314.441V7.5H316.441ZM555.441 7.5H557.441V5.5H555.441V7.5ZM555.441 92H405.441V96H555.441V92ZM403.441 94V149.5H407.441V94H403.441ZM406.891 150.877C412.961 144.488 421.339 139.302 432.125 135.38L430.758 131.62C419.544 135.698 410.588 141.179 403.991 148.122L406.891 150.877ZM432.125 135.38C442.878 131.469 454.809 129.5 467.941 129.5V125.5C454.407 125.5 442.005 127.53 430.758 131.62L432.125 135.38ZM467.941 129.5C491.633 129.5 511.213 134.926 526.808 145.648L529.074 142.352C512.67 131.074 492.25 125.5 467.941 125.5V129.5ZM526.824 145.659C542.839 156.445 554.587 170.642 562.101 188.284L565.781 186.716C557.962 168.358 545.71 153.555 529.059 142.341L526.824 145.659ZM562.101 188.284C569.653 206.014 573.441 225.411 573.441 246.5H577.441C577.441 224.922 573.563 204.986 565.781 186.716L562.101 188.284ZM573.441 246.5C573.441 285.439 562.399 315.888 540.517 338.096L543.366 340.904C566.151 317.779 577.441 286.227 577.441 246.5H573.441ZM540.527 338.086C518.659 359.954 488.221 371 448.941 371V375C488.995 375 520.557 363.713 543.356 340.914L540.527 338.086ZM448.941 371C421.496 371 397.793 366.371 377.776 357.182L376.107 360.818C396.756 370.296 421.053 375 448.941 375V371ZM377.812 357.199C358.113 347.678 343.081 334.585 332.636 317.937L329.247 320.063C340.135 337.415 355.77 350.989 376.071 360.801L377.812 357.199ZM332.636 317.937C322.182 301.276 316.77 282.14 316.441 260.47L312.442 260.53C312.78 282.86 318.368 302.724 329.247 320.063L332.636 317.937ZM314.441 262.5H409.941V258.5H314.441V262.5ZM407.958 260.759C409.017 268.88 412.561 275.948 418.527 281.914L421.356 279.086C415.989 273.719 412.865 267.454 411.925 260.241L407.958 260.759ZM418.527 281.914C424.691 288.078 433.613 291 444.941 291V287C434.27 287 426.525 284.255 421.356 279.086L418.527 281.914ZM444.941 291C457.119 291 466.598 286.792 473.041 278.2L469.841 275.8C464.285 283.208 456.098 287 444.941 287V291ZM473.041 278.2C479.376 269.754 482.441 258.623 482.441 245H478.441C478.441 258.044 475.507 268.246 469.841 275.8L473.041 278.2ZM482.441 245C482.441 231.7 479.201 221.291 472.391 214.122L469.491 216.877C475.348 223.042 478.441 232.3 478.441 245H482.441ZM472.424 214.158C465.615 206.631 455.843 203 443.441 203V207C455.04 207 463.602 210.369 469.458 216.842L472.424 214.158ZM443.441 203C434.086 203 426.27 205.432 420.17 210.456L422.713 213.544C427.946 209.234 434.797 207 443.441 207V203ZM420.18 210.448C414.468 215.089 411.039 221.033 409.964 228.203L413.919 228.797C414.844 222.634 417.748 217.578 422.703 213.552L420.18 210.448ZM411.941 226.5H316.441V230.5H411.941V226.5ZM318.441 228.5V7.5H314.441V228.5H318.441ZM316.441 9.5H555.441V5.5H316.441V9.5ZM553.441 7.5V94H557.441V7.5H553.441ZM634.578 36.5L633.21 35.0409L634.578 36.5ZM760.078 166.5L761.446 167.959L761.454 167.952L761.462 167.944L760.078 166.5ZM634.578 166.5L633.194 167.944L633.21 167.959L633.225 167.973L634.578 166.5ZM965.578 19.5L967.341 20.4449L968.92 17.5H965.578V19.5ZM776.078 373V375H777.275L777.841 373.945L776.078 373ZM682.078 373L680.315 372.055L678.737 375H682.078V373ZM871.578 19.5V17.5H870.381L869.815 18.5551L871.578 19.5ZM712.578 124L711.016 122.751L710.99 122.783L710.965 122.817L712.578 124ZM712.578 79L710.965 80.1827L710.99 80.2166L711.016 80.2494L712.578 79ZM887.578 226L888.946 227.459L888.947 227.458L887.578 226ZM1012.58 226L1011.18 227.429L1011.19 227.444L1011.21 227.459L1012.58 226ZM1012.58 356L1013.96 357.445L1013.96 357.444L1012.58 356ZM887.578 356L886.194 357.444L886.21 357.459L886.225 357.473L887.578 356ZM965.078 313.5L963.478 312.3L963.472 312.309L963.465 312.317L965.078 313.5ZM965.078 268.5L963.43 269.633L963.471 269.693L963.516 269.749L965.078 268.5ZM612.578 101.5C612.578 73.5492 620.459 52.4784 635.946 37.9591L633.21 35.0409C616.698 50.5215 608.578 72.7841 608.578 101.5H612.578ZM635.946 37.9591C651.508 23.3696 671.986 16 697.578 16V12C671.17 12 649.648 19.6304 633.21 35.0409L635.946 37.9591ZM697.578 16C722.829 16 743.143 23.365 758.71 37.9591L761.446 35.0409C745.013 19.6349 723.66 12 697.578 12V16ZM758.71 37.9591C774.198 52.4784 782.078 73.5492 782.078 101.5H786.078C786.078 72.7841 777.959 50.5215 761.446 35.0409L758.71 37.9591ZM782.078 101.5C782.078 129.107 774.203 150.194 758.694 165.056L761.462 167.944C777.953 152.14 786.078 129.893 786.078 101.5H782.078ZM758.71 165.041C743.143 179.635 722.829 187 697.578 187V191C723.66 191 745.013 183.365 761.446 167.959L758.71 165.041ZM697.578 187C672.328 187 651.838 179.635 635.931 165.027L633.225 167.973C649.985 183.365 671.495 191 697.578 191V187ZM635.962 165.056C620.453 150.194 612.578 129.107 612.578 101.5H608.578C608.578 129.893 616.703 152.14 633.194 167.944L635.962 165.056ZM963.815 18.5551L774.315 372.055L777.841 373.945L967.341 20.4449L963.815 18.5551ZM776.078 371H682.078V375H776.078V371ZM683.841 373.945L873.341 20.4449L869.815 18.5551L680.315 372.055L683.841 373.945ZM871.578 21.5H965.578V17.5H871.578V21.5ZM697.078 69.5C689.683 69.5 683.894 72.2493 680.052 77.8716C676.303 83.3571 674.578 91.3345 674.578 101.5H678.578C678.578 91.6654 680.27 84.6429 683.354 80.1284C686.346 75.7506 690.807 73.5 697.078 73.5V69.5ZM674.578 101.5C674.578 111.665 676.303 119.643 680.052 125.128C683.894 130.751 689.683 133.5 697.078 133.5V129.5C690.807 129.5 686.346 127.249 683.354 122.872C680.27 118.357 678.578 111.335 678.578 101.5H674.578ZM697.078 133.5C704.326 133.5 710.116 130.74 714.191 125.183L710.965 122.817C707.707 127.26 703.164 129.5 697.078 129.5V133.5ZM714.14 125.249C718.544 119.744 720.578 111.714 720.578 101.5H716.578C716.578 111.286 714.612 118.256 711.016 122.751L714.14 125.249ZM720.578 101.5C720.578 91.2863 718.544 83.256 714.14 77.7506L711.016 80.2494C714.612 84.744 716.578 91.7137 716.578 101.5H720.578ZM714.191 77.8173C710.116 72.26 704.326 69.5 697.078 69.5V73.5C703.164 73.5 707.707 75.7399 710.965 80.1827L714.191 77.8173ZM865.578 290.5C865.578 262.891 873.454 241.983 888.946 227.459L886.21 224.541C869.702 240.017 861.578 262.109 861.578 290.5H865.578ZM888.947 227.458C904.855 212.524 925.34 205 950.578 205V201C924.483 201 902.968 208.809 886.209 224.542L888.947 227.458ZM950.578 205C975.818 205 995.95 212.524 1011.18 227.429L1013.98 224.571C997.873 208.809 976.672 201 950.578 201V205ZM1011.21 227.459C1026.7 241.983 1034.58 262.891 1034.58 290.5H1038.58C1038.58 262.109 1030.45 240.017 1013.95 224.541L1011.21 227.459ZM1034.58 290.5C1034.58 318.448 1026.7 339.698 1011.19 354.556L1013.96 357.444C1030.46 341.635 1038.58 319.218 1038.58 290.5H1034.58ZM1011.19 354.555C995.968 369.135 975.83 376.5 950.578 376.5V380.5C976.659 380.5 997.855 372.865 1013.96 357.445L1011.19 354.555ZM950.578 376.5C925.328 376.5 904.838 369.135 888.931 354.527L886.225 357.473C902.985 372.865 924.495 380.5 950.578 380.5V376.5ZM888.962 354.556C873.458 339.698 865.578 318.448 865.578 290.5H861.578C861.578 319.218 869.698 341.635 886.194 357.444L888.962 354.556ZM950.078 258.5C942.536 258.5 936.623 261.234 932.69 266.853C928.847 272.342 927.078 280.328 927.078 290.5H931.078C931.078 280.672 932.809 273.658 935.967 269.147C939.033 264.766 943.62 262.5 950.078 262.5V258.5ZM927.078 290.5C927.078 300.834 928.846 308.939 932.681 314.509C936.609 320.214 942.523 323 950.078 323V319C943.634 319 939.048 316.703 935.975 312.241C932.811 307.644 931.078 300.499 931.078 290.5H927.078ZM950.078 323C957.032 323 962.638 320.209 966.691 314.683L963.465 312.317C960.185 316.791 955.791 319 950.078 319V323ZM966.678 314.7C971.039 308.886 973.078 300.727 973.078 290.5H969.078C969.078 300.273 967.117 307.448 963.478 312.3L966.678 314.7ZM973.078 290.5C973.078 280.6 971.036 272.746 966.64 267.251L963.516 269.749C967.12 274.254 969.078 281.066 969.078 290.5H973.078ZM966.726 267.367C962.696 261.505 957.087 258.5 950.078 258.5V262.5C955.736 262.5 960.127 264.828 963.43 269.633L966.726 267.367Z" fill="url(#paint0_radial_1_1378)" mask="url(#path-1-outside-1_1_1378)"/>
<defs>
<radialGradient id="paint0_radial_1_1378" cx="0" cy="0" r="1" gradientUnits="userSpaceOnUse" gradientTransform="translate(518 -202) rotate(90) scale(511.5 726.33)">
<stop stop-color="#0096D8"/>
<stop offset="1" stop-color="#0096D8" stop-opacity="0"/>
</radialGradient>
</defs>
</svg>
