<svg width="926" height="312" viewBox="0 0 926 312" fill="none" xmlns="http://www.w3.org/2000/svg">
<mask id="path-1-outside-1_1_1379" maskUnits="userSpaceOnUse" x="-2" y="-52" width="930" height="366" fill="black">
<rect fill="white" x="-2" y="-52" width="930" height="366"/>
<path d="M181.449 311.5C148.449 311.5 118.116 303.833 90.4492 288.5C62.7826 272.833 40.7826 251.333 24.4492 224C8.44922 196.333 0.44922 165.167 0.44922 130.5C0.44922 95.8333 8.44922 64.8333 24.4492 37.5C40.7826 9.83333 62.7826 -11.6667 90.4492 -27C118.116 -42.3333 148.449 -50 181.449 -50C214.783 -50 245.116 -42.3333 272.449 -27C300.116 -11.6667 321.949 9.83333 337.949 37.5C353.949 64.8333 361.949 95.8333 361.949 130.5C361.949 165.167 353.949 196.333 337.949 224C321.949 251.333 300.116 272.833 272.449 288.5C244.783 303.833 214.449 311.5 181.449 311.5ZM181.449 220.5C206.449 220.5 226.116 212.333 240.449 196C255.116 179.667 262.449 157.833 262.449 130.5C262.449 102.5 255.116 80.5 240.449 64.5C226.116 48.1667 206.449 40 181.449 40C156.116 40 136.283 48.1667 121.949 64.5C107.616 80.5 100.449 102.5 100.449 130.5C100.449 158.167 107.616 180.167 121.949 196.5C136.283 212.5 156.116 220.5 181.449 220.5ZM645.004 -44.5V33.5H504.004V95.5H608.004V170H504.004V308H406.004V-44.5H645.004ZM925.277 -44.5V33.5H784.277V95.5H888.277V170H784.277V308H686.277V-44.5H925.277Z"/>
</mask>
<path d="M90.4492 288.5L89.4637 290.24L89.4717 290.245L89.4797 290.249L90.4492 288.5ZM24.4492 224L22.7179 225.001L22.7251 225.014L22.7324 225.026L24.4492 224ZM24.4492 37.5L22.7269 36.4832L22.7232 36.4896L24.4492 37.5ZM272.449 -27L271.471 -25.2557L271.48 -25.2507L272.449 -27ZM337.949 37.5L336.218 38.5013L336.223 38.5103L337.949 37.5ZM337.949 224L339.675 225.01L339.681 225.001L337.949 224ZM272.449 288.5L273.419 290.249L273.427 290.245L273.435 290.24L272.449 288.5ZM240.449 196L238.961 194.664L238.954 194.672L238.946 194.681L240.449 196ZM240.449 64.5L238.946 65.8192L238.96 65.8354L238.975 65.8514L240.449 64.5ZM121.949 64.5L123.439 65.8345L123.446 65.8269L123.452 65.8192L121.949 64.5ZM121.949 196.5L120.446 197.819L120.453 197.827L120.46 197.835L121.949 196.5ZM181.449 309.5C148.773 309.5 118.776 301.912 91.4187 286.751L89.4797 290.249C117.456 305.754 148.125 313.5 181.449 313.5V309.5ZM91.4347 286.76C64.0701 271.264 42.3219 250.01 26.1661 222.974L22.7324 225.026C39.2432 252.656 61.495 274.403 89.4637 290.24L91.4347 286.76ZM26.1805 222.999C10.3713 195.662 2.44922 164.846 2.44922 130.5H-1.55078C-1.55078 165.488 6.52713 197.005 22.7179 225.001L26.1805 222.999ZM2.44922 130.5C2.44922 96.1539 10.3714 65.5087 26.1753 38.5103L22.7232 36.4896C6.52708 64.158 -1.55078 95.5128 -1.55078 130.5H2.44922ZM26.1715 38.5168C42.3266 11.1519 64.0689 -10.0929 91.4187 -25.2507L89.4797 -28.7493C61.4962 -13.2404 39.2385 8.51474 22.727 36.4832L26.1715 38.5168ZM91.4187 -25.2507C118.776 -40.4124 148.773 -48 181.449 -48V-52C148.125 -52 117.456 -44.2543 89.4797 -28.7493L91.4187 -25.2507ZM181.449 -48C214.462 -48 244.455 -40.4107 271.471 -25.2557L273.428 -28.7443C245.776 -44.256 215.103 -52 181.449 -52V-48ZM271.48 -25.2507C298.826 -10.095 320.397 11.1449 336.218 38.5013L339.681 36.4987C323.501 8.52173 301.406 -13.2384 273.419 -28.7493L271.48 -25.2507ZM336.223 38.5103C352.027 65.5087 359.949 96.1539 359.949 130.5H363.949C363.949 95.5128 355.871 64.158 339.675 36.4896L336.223 38.5103ZM359.949 130.5C359.949 164.846 352.027 195.662 336.218 222.999L339.681 225.001C355.871 197.005 363.949 165.488 363.949 130.5H359.949ZM336.223 222.99C320.402 250.017 298.825 271.266 271.464 286.76L273.435 290.24C301.407 274.401 323.496 252.649 339.675 225.01L336.223 222.99ZM271.48 286.751C244.123 301.912 214.125 309.5 181.449 309.5V313.5C214.773 313.5 245.442 305.754 273.419 290.249L271.48 286.751ZM181.449 222.5C206.929 222.5 227.18 214.152 241.952 197.319L238.946 194.681C225.051 210.514 205.969 218.5 181.449 218.5V222.5ZM241.937 197.336C257.009 180.552 264.449 158.201 264.449 130.5H260.449C260.449 157.466 253.223 178.781 238.961 194.664L241.937 197.336ZM264.449 130.5C264.449 102.149 257.017 79.6146 241.924 63.1485L238.975 65.8514C253.214 81.3854 260.449 102.851 260.449 130.5H264.449ZM241.952 63.1808C227.18 46.3475 206.929 38 181.449 38V42C205.969 42 225.051 49.9858 238.946 65.8192L241.952 63.1808ZM181.449 38C155.645 38 135.223 46.3414 120.446 63.1808L123.452 65.8192C137.342 49.9919 156.586 42 181.449 42V38ZM120.46 63.1655C105.708 79.6323 98.4492 102.161 98.4492 130.5H102.449C102.449 102.839 109.524 81.3677 123.439 65.8345L120.46 63.1655ZM98.4492 130.5C98.4492 158.516 105.713 181.03 120.446 197.819L123.452 195.181C109.519 179.303 102.449 157.818 102.449 130.5H98.4492ZM120.46 197.835C135.241 214.335 155.659 222.5 181.449 222.5V218.5C156.573 218.5 137.324 210.665 123.439 195.165L120.46 197.835ZM645.004 -44.5H647.004V-46.5H645.004V-44.5ZM645.004 33.5V35.5H647.004V33.5H645.004ZM504.004 33.5V31.5H502.004V33.5H504.004ZM504.004 95.5H502.004V97.5H504.004V95.5ZM608.004 95.5H610.004V93.5H608.004V95.5ZM608.004 170V172H610.004V170H608.004ZM504.004 170V168H502.004V170H504.004ZM504.004 308V310H506.004V308H504.004ZM406.004 308H404.004V310H406.004V308ZM406.004 -44.5V-46.5H404.004V-44.5H406.004ZM643.004 -44.5V33.5H647.004V-44.5H643.004ZM645.004 31.5H504.004V35.5H645.004V31.5ZM502.004 33.5V95.5H506.004V33.5H502.004ZM504.004 97.5H608.004V93.5H504.004V97.5ZM606.004 95.5V170H610.004V95.5H606.004ZM608.004 168H504.004V172H608.004V168ZM502.004 170V308H506.004V170H502.004ZM504.004 306H406.004V310H504.004V306ZM408.004 308V-44.5H404.004V308H408.004ZM406.004 -42.5H645.004V-46.5H406.004V-42.5ZM925.277 -44.5H927.277V-46.5H925.277V-44.5ZM925.277 33.5V35.5H927.277V33.5H925.277ZM784.277 33.5V31.5H782.277V33.5H784.277ZM784.277 95.5H782.277V97.5H784.277V95.5ZM888.277 95.5H890.277V93.5H888.277V95.5ZM888.277 170V172H890.277V170H888.277ZM784.277 170V168H782.277V170H784.277ZM784.277 308V310H786.277V308H784.277ZM686.277 308H684.277V310H686.277V308ZM686.277 -44.5V-46.5H684.277V-44.5H686.277ZM923.277 -44.5V33.5H927.277V-44.5H923.277ZM925.277 31.5H784.277V35.5H925.277V31.5ZM782.277 33.5V95.5H786.277V33.5H782.277ZM784.277 97.5H888.277V93.5H784.277V97.5ZM886.277 95.5V170H890.277V95.5H886.277ZM888.277 168H784.277V172H888.277V168ZM782.277 170V308H786.277V170H782.277ZM784.277 306H686.277V310H784.277V306ZM688.277 308V-44.5H684.277V308H688.277ZM686.277 -42.5H925.277V-46.5H686.277V-42.5Z" fill="url(#paint0_radial_1_1379)" mask="url(#path-1-outside-1_1_1379)"/>
<defs>
<radialGradient id="paint0_radial_1_1379" cx="0" cy="0" r="1" gradientUnits="userSpaceOnUse" gradientTransform="translate(483.5 298.5) rotate(-88.2217) scale(386.686 492.607)">
<stop stop-color="#0096D8" stop-opacity="0.38"/>
<stop offset="1" stop-color="#0096D8" stop-opacity="0"/>
</radialGradient>
</defs>
</svg>
